<?xml version="1.0" standalone="no"?>
<!DOCTYPE svg PUBLIC "-//W3C//DTD SVG 20010904//EN"
 "http://www.w3.org/TR/2001/REC-SVG-20010904/DTD/svg10.dtd">
<svg version="1.0" xmlns="http://www.w3.org/2000/svg"
 width="1207.000000pt" height="1207.000000pt" viewBox="0 0 1207.000000 1207.000000"
 preserveAspectRatio="xMidYMid meet">
<metadata>
Created by potrace 1.11, written by Peter Selinger 2001-2013
</metadata>
<g transform="translate(0.000000,1207.000000) scale(0.100000,-0.100000)"
fill="#000000" stroke="none">
<path d="M0 6035 l0 -6035 6035 0 6035 0 0 6035 0 6035 -6035 0 -6035 0 0
-6035z m8175 4090 c882 -87 1525 -464 1925 -1129 220 -366 342 -791 391 -1365
13 -157 7 -559 -11 -741 -80 -790 -411 -1485 -961 -2014 -511 -493 -1127 -803
-1909 -961 -146 -30 -459 -71 -612 -81 l-108 -7 0 -1113 0 -1114 -905 0 -905
0 0 1113 0 1114 -147 12 c-567 48 -1145 191 -1565 389 -606 285 -1044 705
-1318 1267 -234 478 -350 1043 -350 1705 0 801 166 1427 499 1882 344 468 859
755 1556 868 161 26 434 50 583 50 l112 0 0 -599 0 -598 -62 -7 c-272 -30
-513 -212 -623 -471 -130 -306 -174 -660 -145 -1171 33 -572 132 -972 328
-1314 207 -363 484 -598 872 -740 78 -28 225 -70 248 -70 5 0 11 315 15 808 3
444 11 890 16 992 61 1096 228 1827 534 2340 213 357 534 618 967 784 216 84
530 151 820 175 167 14 594 12 755 -4z"/>
<path d="M7725 9040 c-435 -59 -702 -638 -795 -1725 -27 -318 -32 -495 -37
-1357 l-5 -928 23 0 c13 0 65 7 114 14 734 113 1216 553 1430 1306 161 567
179 1454 40 1998 -89 347 -232 555 -447 650 -85 37 -223 55 -323 42z"/>
</g>
</svg>
